<svg width="60" height="60" viewBox="0 0 60 60" fill="none" xmlns="http://www.w3.org/2000/svg">
<path d="M30 59.8382C46.4792 59.8382 59.8383 46.4792 59.8383 29.9999C59.8383 13.5207 46.4792 0.161621 30 0.161621C13.5208 0.161621 0.161682 13.5207 0.161682 29.9999C0.161682 46.4792 13.5208 59.8382 30 59.8382Z" fill="#DD4814"/>
<path d="M9.71007 33.9836C11.9101 33.9836 13.6935 32.2001 13.6935 30.0001C13.6935 27.8001 11.9101 26.0166 9.71007 26.0166C7.51006 26.0166 5.72659 27.8001 5.72659 30.0001C5.72659 32.2001 7.51006 33.9836 9.71007 33.9836Z" fill="white"/>
<path d="M20.3988 44.399C16.9125 42.0698 14.3191 38.509 13.2419 34.3382C14.5004 33.3127 15.3043 31.7508 15.3043 30C15.3043 28.2492 14.5004 26.6873 13.2419 25.6618C14.3191 21.4911 16.9125 17.9302 20.3988 15.6011L23.3113 20.4798C20.3195 22.5853 18.3631 26.0626 18.3631 30C18.3631 33.9374 20.3195 37.4147 23.3113 39.5203L20.3988 44.399Z" fill="white"/>
<path d="M36.4443 10.5232C35.344 12.4258 35.9946 14.8603 37.8975 15.9608C39.8003 17.0613 42.2348 16.4111 43.3351 14.5085C44.4353 12.6058 43.7847 10.1713 41.8819 9.07085C39.9791 7.97036 37.5446 8.6206 36.4443 10.5232Z" fill="white"/>
<path d="M22.088 14.5974C25.8497 12.7468 30.2322 12.2821 34.3849 13.4318C34.6441 15.0308 35.5956 16.5045 37.1127 17.3779C38.6298 18.2512 40.3852 18.3357 41.9032 17.7598C44.9786 20.771 46.7672 24.7883 47.0421 28.9625L41.3581 29.0455C41.0297 25.4101 38.9949 21.985 35.5831 20.021C32.1712 18.0569 28.1797 18.0129 24.8591 19.5477L22.088 14.5974Z" fill="white"/>
<path d="M43.338 45.3942C42.2357 43.4927 39.8005 42.845 37.8988 43.9475C35.9971 45.0499 35.349 47.4851 36.4512 49.3866C37.5535 51.2881 39.9887 51.9359 41.8904 50.8334C43.7921 49.7309 44.4402 47.2958 43.338 45.3942Z" fill="white"/>
<path d="M47.0297 30.9362C46.7592 35.1109 44.9747 39.13 41.9025 42.1445C40.3839 41.5701 38.6286 41.6564 37.1124 42.5314C35.5962 43.4063 34.6463 44.8811 34.3887 46.4804C30.2372 47.6344 25.8542 47.1742 22.0907 45.3274L24.8565 40.3742C28.1788 41.9056 32.1702 41.8575 35.58 39.8898C38.9898 37.9222 41.021 34.4949 41.3457 30.859L47.0297 30.9362Z" fill="white"/>
</svg>
