<svg width="60" height="60" viewBox="0 0 60 60" fill="none" xmlns="http://www.w3.org/2000/svg">
<path d="M29.772 0.193687C27.1421 6.64073 25.5452 10.8635 22.6182 17.1192C24.4126 19.0217 26.6188 21.2297 30.1975 23.7321C26.3502 22.1491 23.7277 20.5641 21.7671 18.9146C18.0203 26.7331 12.1458 37.8663 0.233538 59.2706C9.59354 53.8669 16.8508 50.5328 23.6132 49.2608C23.3234 48.0137 23.1692 46.6586 23.1803 45.2509L23.1877 44.9555C23.3363 38.9574 26.4572 34.3448 30.1542 34.6577C33.8502 34.9706 36.7283 40.0891 36.5797 46.0881C36.5511 47.218 36.42 48.3035 36.1975 49.3115C42.8871 50.6205 50.0751 53.9389 59.3105 59.2706C57.4892 55.918 55.8582 52.8968 54.3055 50.0177C51.8603 48.1226 49.3108 45.6571 44.1083 42.9866C47.6843 43.9161 50.2468 44.9906 52.2425 46.1888C36.4597 16.8026 35.184 12.8952 29.772 0.193687V0.193604V0.193687Z" fill="#1793D1"/>
<path d="M46.3994 35.3067C33.5945 17.9279 30.6268 3.92024 29.8745 0.575928C36.7052 16.3301 36.6582 16.5239 46.3994 35.3067Z" fill="white" fill-opacity="0.16568"/>
<path d="M29.8874 0.424561C29.5551 1.241 29.2412 2.03699 28.9348 2.78995C28.5988 3.61573 28.272 4.41133 27.9545 5.18422C27.6369 5.95712 27.3148 6.68967 27.0028 7.43422C26.6898 8.17869 26.3991 8.91475 26.0797 9.65542C25.7603 10.3957 25.4095 11.1443 25.0698 11.905C24.7302 12.6665 24.3757 13.4354 24.0028 14.2422C23.6298 15.048 23.2385 15.9047 22.8194 16.7807C22.7631 16.8988 22.7049 17.0354 22.6468 17.1554C24.4366 19.0514 26.6437 21.2419 30.204 23.7323C26.3575 22.1493 23.7425 20.5643 21.7809 18.9148C21.6794 19.1234 21.5982 19.3071 21.4929 19.5203C21.1052 20.3243 20.6889 21.12 20.2523 22.0016C20.148 22.2083 20.0714 22.3957 19.9643 22.6071C19.5018 23.5339 19.0172 24.493 18.4929 25.5203C18.3886 25.7234 18.2825 25.8914 18.1754 26.0973C17.8588 26.713 16.8462 28.6542 15.8105 30.6268C15.2058 31.7788 14.7314 32.7222 14.0502 34.0016C13.8572 34.369 13.4603 35.1047 13.3578 35.2994C20.8578 31.0782 28.9495 24.9462 43.6468 30.1939C42.9111 28.8 42.2049 27.4994 41.5698 26.2708C40.9348 25.0413 40.3588 23.8976 39.8105 22.8093C39.2622 21.721 38.7554 20.6945 38.2809 19.7225C37.8074 18.7505 37.368 17.833 36.9545 16.9533C36.5409 16.0736 36.1375 15.2271 35.772 14.4148C35.4055 13.6034 35.0649 12.8179 34.7335 12.0499C34.4022 11.281 34.092 10.5194 33.7809 9.77081C33.4708 9.02173 33.1606 8.30349 32.8578 7.54961C32.7268 7.22155 32.6151 6.87225 32.4831 6.53995C31.6634 4.61542 30.8594 2.70779 29.8874 0.424561V0.424579V0.424561Z" fill="url(#paint0_linear)"/>
<defs>
<linearGradient id="paint0_linear" x1="29.9071" y1="9.81427" x2="19.9213" y2="27.0213" gradientUnits="userSpaceOnUse">
<stop stop-color="white" stop-opacity="0"/>
<stop offset="1" stop-color="white" stop-opacity="0.27451"/>
</linearGradient>
</defs>
</svg>
