<svg width="27" height="30" viewBox="0 0 27 30" fill="none" xmlns="http://www.w3.org/2000/svg">
<g clip-path="url(#clip0)">
<path fill-rule="evenodd" clip-rule="evenodd" d="M12.6939 0.754409C13.1584 0.492345 13.7304 0.492345 14.1943 0.754409C16.4898 2.04959 23.3976 5.94822 25.6938 7.2434C26.1584 7.50478 26.4444 7.98901 26.4444 8.51314C26.4444 11.1035 26.4444 18.9001 26.4444 21.4904C26.4444 22.0146 26.1584 22.4988 25.6938 22.7609C23.3983 24.056 16.4905 27.9547 14.1943 29.2499C13.7297 29.5119 13.1577 29.5119 12.6939 29.2499C10.3983 27.9547 3.49056 24.056 1.19435 22.7609C0.730457 22.4988 0.444458 22.0152 0.444458 21.4911C0.444458 18.9008 0.444458 11.1042 0.444458 8.51383C0.444458 7.9897 0.730457 7.50547 1.19504 7.2434C3.48987 5.94822 10.399 2.04959 12.6939 0.754409Z" fill="#004482"/>
<path fill-rule="evenodd" clip-rule="evenodd" d="M0.652458 22.1564C0.470458 21.9115 0.444458 21.679 0.444458 21.366C0.444458 18.7908 0.444458 11.039 0.444458 8.46303C0.444458 7.94166 0.729773 7.46018 1.19298 7.20018C3.48029 5.91256 10.3648 2.03663 12.6521 0.748328C13.1153 0.487641 13.7427 0.493143 14.206 0.753831C16.4933 2.04145 23.3545 5.88436 25.6418 7.17197C25.8266 7.27652 25.9675 7.4024 26.0934 7.56816L0.652458 22.1564Z" fill="#659AD2"/>
<path fill-rule="evenodd" clip-rule="evenodd" d="M13.4444 5.37061C18.7313 5.37061 23.0234 9.68536 23.0234 15.0002C23.0234 20.3151 18.7313 24.6298 13.4444 24.6298C8.15755 24.6298 3.86551 20.3151 3.86551 15.0002C3.86551 9.68536 8.15755 5.37061 13.4444 5.37061ZM13.4444 10.1854C16.0875 10.1854 18.2339 12.3424 18.2339 15.0002C18.2339 17.6573 16.0875 19.815 13.4444 19.815C10.8013 19.815 8.65497 17.6573 8.65497 15.0002C8.65497 12.3424 10.8007 10.1854 13.4444 10.1854Z" fill="white"/>
<path fill-rule="evenodd" clip-rule="evenodd" d="M26.092 7.57507C26.4451 7.90729 26.4382 8.40803 26.4382 8.80216C26.4382 11.4125 26.4163 18.8369 26.4444 21.4472C26.4471 21.7196 26.3575 22.0064 26.2234 22.2224L13.166 15.0002L26.092 7.57507Z" fill="#00599C"/>
</g>
<defs>
<clipPath id="clip0">
<rect width="26" height="28.8889" fill="white" transform="translate(0.444458 0.555542)"/>
</clipPath>
</defs>
</svg>
