<svg width="60" height="60" viewBox="0 0 60 60" fill="none" xmlns="http://www.w3.org/2000/svg">
<path d="M57.3464 27.4688L32.5305 2.65414C31.1017 1.22466 28.7839 1.22466 27.3538 2.65414L22.2012 7.80796L28.7375 14.3442C30.2567 13.8308 31.9986 14.1754 33.2091 15.3865C34.427 16.6051 34.7685 18.3618 34.2421 19.8865L40.5427 26.1865C42.0674 25.6607 43.8254 26.0009 45.0427 27.2201C46.7437 28.9212 46.7437 31.6774 45.0427 33.3797C43.3404 35.0814 40.5841 35.0814 38.8812 33.3797C37.6021 32.0993 37.2854 30.2189 37.9342 28.6428L32.0579 22.7671V38.2292C32.4724 38.4346 32.8639 38.708 33.2091 39.0531C34.9101 40.7541 34.9101 43.5104 33.2091 45.2133C31.508 46.9137 28.7499 46.9137 27.0501 45.2133C25.3491 43.5098 25.3491 40.7535 27.0501 39.0531C27.4707 38.6331 27.9575 38.3152 28.4771 38.1024V22.4962C27.9575 22.2834 27.472 21.9686 27.0501 21.5455C25.7617 20.2577 25.4518 18.3661 26.1124 16.7838L19.6689 10.3391L2.65237 27.3537C1.22289 28.7845 1.22289 31.1022 2.65237 32.5317L27.4695 57.3469C28.8984 58.7764 31.2155 58.7764 32.6462 57.3469L57.3464 32.6467C58.7759 31.2172 58.7759 28.8983 57.3464 27.4688Z" fill="#F05133"/>
</svg>
