<svg width="23" height="33" viewBox="0 0 23 33" fill="none" xmlns="http://www.w3.org/2000/svg">
<g clip-path="url(#clip0)">
<path d="M0.756396 17.8483C0.798544 18.7851 1.6669 18.3485 2.0547 18.0574C2.42566 17.7755 2.53526 18.012 2.56895 17.4662C2.59425 17.1024 2.62794 16.7477 2.6111 16.3839C2.04624 16.3293 1.43923 16.4748 0.975517 16.8386C0.73109 17.0205 0.292678 17.6209 0.756311 17.8483H0.756396ZM18.0644 29.3633C18.7304 29.809 19.9529 31.1552 18.9496 31.81C17.9885 32.756 17.449 30.764 16.6059 30.4911C16.9684 29.9545 17.4236 29.4633 18.0644 29.3633ZM6.14352 30.8822C5.35946 31.0096 4.92105 31.7736 4.26352 32.1648C3.64805 32.5559 3.412 32.0374 3.36139 31.9283C3.26871 31.8828 3.27709 31.9738 3.12534 31.81C2.55211 30.8368 3.7155 30.1274 4.32251 29.6452C5.16556 29.4633 5.69673 30.2547 6.14352 30.8822ZM21.7654 17.73C21.7233 18.6669 20.8549 18.2303 20.4671 17.9392C20.0962 17.6572 19.9866 17.8937 19.9529 17.348C19.9275 16.9842 19.8938 16.6294 19.9107 16.2656C20.4755 16.211 21.0825 16.3566 21.5462 16.7204C21.7824 16.9023 22.2292 17.5026 21.7654 17.73Z" fill="#F6D2A2"/>
<path d="M19.4639 6.30596C22.4736 5.15991 20.1215 0.712221 17.4995 2.67679C15.7797 1.08505 13.4108 0.793945 10.9237 0.793945C8.48734 1.00332 6.16883 1.48536 4.55018 3.01336C1.93655 1.19416 -0.474547 5.56004 2.59417 6.66071C1.73427 10.2625 2.71215 13.9371 2.57724 17.6027C2.45079 20.8954 1.64989 25.3066 3.34446 28.2627C4.78614 30.7913 7.88854 31.6918 10.4431 31.7919C13.7057 31.9192 17.6596 31.0551 19.2446 27.6443C20.7621 24.3971 20.3406 20.3496 20.1467 16.8478C19.9528 13.3096 20.3153 9.71681 19.4638 6.30587L19.4639 6.30596Z" fill="#69D7E2"/>
<path d="M21.9926 17.175C21.9083 16.984 21.7482 16.7656 21.5964 16.6474C21.2086 16.3473 20.7111 16.1835 20.1969 16.1654C20.18 15.6014 20.1632 14.9829 20.1632 14.2007V13.4912C20.1547 11.2537 20.1294 10.2714 20.0114 9.04343C19.9187 8.07937 19.7753 7.18798 19.573 6.35121C20.256 6.06924 20.7027 5.60537 20.8798 5.005C21.0484 4.45019 20.9641 3.82261 20.6775 3.2678C20.3824 2.72203 19.9103 2.31268 19.3623 2.14905C18.7721 1.9762 18.1314 2.10358 17.516 2.54918C16.968 2.04898 16.3357 1.66693 15.6275 1.37583C14.3713 0.875716 12.9129 0.684692 10.9317 0.684692V0.775639L10.9232 0.684692C8.80715 0.866585 7.23903 1.22133 5.94072 1.90352C5.41801 2.17636 4.95438 2.5038 4.54974 2.88585C3.9258 2.46746 3.27665 2.36738 2.67811 2.56753C2.12171 2.74943 1.64115 3.17695 1.35449 3.73176C1.06783 4.28656 1.00038 4.92328 1.19428 5.46905C1.38818 6.01472 1.83497 6.44224 2.50105 6.70604C2.29031 7.62464 2.1807 8.59793 2.16386 9.6712C2.14693 10.7172 2.18908 11.554 2.34083 13.4458C2.45044 14.8557 2.49259 15.5014 2.50951 16.2837C1.93619 16.2564 1.36296 16.4201 0.932924 16.7567C0.781173 16.8749 0.612579 17.0841 0.536745 17.2842C0.427143 17.539 0.469291 17.7663 0.688497 17.9027C0.722182 18.3393 0.949851 18.5394 1.2955 18.503C1.54839 18.4757 1.8519 18.3302 2.11325 18.1301C2.16846 18.087 2.22783 18.0504 2.29031 18.021C2.31561 18.0119 2.33246 18.0027 2.35776 17.9936C2.35776 17.9936 2.40829 17.9755 2.42522 17.9664C2.45044 17.9573 2.47574 17.9481 2.49259 17.93C2.47574 18.3575 2.44206 18.8032 2.36614 19.8219C2.28184 20.9679 2.2397 21.5956 2.22285 22.2959C2.14693 24.8972 2.4336 26.7891 3.29349 28.2899C3.56331 28.7629 3.89212 29.1813 4.27992 29.5633C4.204 29.6178 3.88365 29.8726 3.78251 29.9544C3.4284 30.2455 3.18397 30.491 3.0406 30.7639C2.85516 31.1186 2.85516 31.4734 3.06591 31.8463L3.07437 31.8554L3.08283 31.8645C3.17551 31.9645 3.22612 31.9918 3.29358 31.9918H3.31871C3.32718 32.0101 3.33564 32.0191 3.3441 32.0373C3.36932 32.0828 3.39463 32.1191 3.41994 32.1555C3.63068 32.4193 3.92572 32.483 4.32198 32.2283C4.53272 32.1101 4.68447 31.9736 5.00482 31.6826L5.02175 31.6643C5.53599 31.1914 5.78888 31.0186 6.1683 30.9549L6.30321 30.9276C6.35374 30.955 6.40435 30.9732 6.46334 31.0004C7.66051 31.5188 9.0515 31.8008 10.4595 31.8554C12.2805 31.9282 14.0341 31.6826 15.5178 31.1004C15.9141 30.9459 16.285 30.7639 16.6391 30.5638C16.8584 30.6548 17.0437 30.8458 17.3979 31.2915C17.4147 31.3097 17.4147 31.3097 17.4231 31.3278C17.4401 31.3461 17.4401 31.3552 17.4485 31.3642C17.4653 31.3915 17.4906 31.4097 17.5074 31.437C17.7857 31.7917 17.9712 31.9645 18.182 32.0646C18.4601 32.1919 18.7299 32.1282 19.0081 31.8554C19.4971 31.528 19.5308 31.0186 19.2104 30.4364C18.9828 30.0272 18.5866 29.5996 18.2157 29.3268C18.6541 28.8629 19.0334 28.3081 19.3284 27.6805C20.1378 25.9341 20.4498 23.8967 20.4329 21.2772C20.4245 20.3494 20.3907 19.54 20.298 17.9936V17.9482C20.3402 17.9664 20.3823 17.9937 20.4245 18.03C20.6858 18.2211 20.9893 18.3756 21.2422 18.4029C21.5879 18.4394 21.8155 18.2392 21.8492 17.8027C22.06 17.6571 22.1021 17.4298 21.9925 17.1751L21.9926 17.175ZM19.3118 2.33999C19.8176 2.48554 20.256 2.86758 20.5258 3.37692C20.7956 3.88625 20.8714 4.45933 20.7197 4.96866C20.5595 5.5053 20.1548 5.93282 19.5225 6.18749C19.3964 5.70051 19.2473 5.22083 19.0757 4.75033C19.3202 4.52297 19.4382 4.241 19.2443 3.84087C19.0505 3.44056 18.7132 3.39509 18.3675 3.51334C18.1483 3.20407 17.9039 2.93123 17.651 2.67656C18.2074 2.29451 18.7807 2.1854 19.3118 2.33999ZM1.33774 5.41435C1.16068 4.9231 1.21967 4.34108 1.48949 3.83174C1.75922 3.32231 2.19763 2.92219 2.72034 2.75847C3.25989 2.58561 3.84159 2.66743 4.41491 3.03131C4.08339 3.35279 3.78899 3.71621 3.53809 4.11371C3.09968 3.86808 2.65289 3.82261 2.39999 4.32281C2.13864 4.85954 2.44214 5.19603 2.87209 5.45069C2.8131 5.60537 2.75402 5.7691 2.7035 5.93282C2.64442 6.13288 2.58543 6.34208 2.5349 6.55127C1.91943 6.2966 1.51479 5.90552 1.33774 5.41435ZM2.35785 17.8117C2.34938 17.8117 2.29877 17.8299 2.29877 17.8389C2.27355 17.848 2.24824 17.8572 2.22294 17.8754C2.15548 17.9027 2.08803 17.9481 2.02066 18.0026C1.78453 18.1846 1.49787 18.321 1.27866 18.3392C1.02577 18.3665 0.882481 18.2483 0.857175 17.9208C1.03423 17.8572 1.11007 17.8117 1.17752 17.7026L1.04261 17.5934C0.992084 17.6662 0.941472 17.6935 0.789721 17.748C0.781257 17.748 0.781257 17.748 0.772794 17.7571C0.637969 17.6752 0.612663 17.5479 0.688581 17.366C0.756036 17.2023 0.907787 17.0113 1.03423 16.9113C1.43887 16.5929 1.97843 16.4383 2.51798 16.4746C2.51798 16.702 2.52644 16.9294 2.51798 17.1476C2.51798 17.175 2.51798 17.1932 2.50951 17.2205C2.50113 17.3478 2.50113 17.4024 2.49267 17.4661C2.46745 17.7298 2.45052 17.7661 2.35785 17.8117ZM4.90385 31.5369L4.88692 31.5552C4.57504 31.8462 4.42329 31.9644 4.22939 32.0827C3.90904 32.2919 3.68984 32.2464 3.53809 32.0463C3.51278 32.0189 3.49594 31.9826 3.4791 31.9553C3.47063 31.9462 3.46217 31.9281 3.45379 31.919V31.9098C3.47072 31.7461 3.52971 31.6279 3.68146 31.3732C3.68992 31.3641 3.68992 31.3641 3.68992 31.355C3.7826 31.2095 3.82475 31.1277 3.8669 31.0276L3.71515 30.9548C3.68146 31.0367 3.63931 31.1095 3.55493 31.2549C3.54647 31.2641 3.54647 31.2641 3.54647 31.2732C3.3948 31.5097 3.32726 31.6552 3.29358 31.8189H3.28511H3.25981C3.24288 31.8097 3.21766 31.7916 3.18397 31.7552C2.85516 31.1913 3.11652 30.7093 3.85835 30.1089C3.95111 30.0362 4.26307 29.7997 4.34737 29.7269C4.3643 29.7269 4.38106 29.7178 4.39798 29.7087C4.85315 30.1272 5.38433 30.4909 5.97449 30.7911C5.97449 30.8002 5.98295 30.8093 5.99133 30.8185C5.64568 30.9093 5.37586 31.1004 4.90377 31.5369H4.90385ZM19.0589 30.5455C19.3202 31.0185 19.3118 31.4005 18.983 31.6643C18.9577 31.6097 18.9408 31.546 18.9071 31.4551C18.9071 31.446 18.9071 31.446 18.8987 31.4368C18.7807 31.0912 18.7048 30.9458 18.5615 30.782L18.4434 30.9093C18.5699 31.0367 18.6289 31.1731 18.7469 31.4914C18.7469 31.5006 18.7469 31.5006 18.7554 31.5097C18.7975 31.6279 18.8228 31.7006 18.8481 31.7644C18.6289 31.9644 18.435 32.0009 18.2327 31.9008C18.0556 31.8189 17.887 31.646 17.6172 31.3187C17.6004 31.3004 17.5835 31.2732 17.5667 31.2459C17.5582 31.2368 17.5497 31.2276 17.5413 31.2095C17.5245 31.1913 17.5245 31.1913 17.5161 31.1731C17.2041 30.782 17.0187 30.5728 16.8163 30.4545C17.2885 30.1635 17.71 29.8361 18.0894 29.454C18.4434 29.736 18.8397 30.1544 19.0589 30.5455ZM19.1769 27.5986C18.4519 29.1721 17.1704 30.2817 15.4505 30.9548C13.9836 31.5279 12.2469 31.7644 10.4512 31.6916C7.35718 31.5733 4.67627 30.4091 3.42011 28.208C2.57705 26.7435 2.29877 24.8789 2.37469 22.314C2.39999 21.6136 2.43368 20.9861 2.51798 19.84C2.61074 18.5484 2.63604 18.1755 2.66135 17.5934C2.67819 17.175 2.67819 16.7475 2.66981 16.2927C2.65289 15.4923 2.61074 14.8556 2.50113 13.4276C2.34938 11.5357 2.30723 10.7079 2.32408 9.67102C2.34947 8.30682 2.51798 7.10608 2.87209 5.96925C3.44516 4.12266 4.49912 2.87653 6.01664 2.06715C7.28964 1.39418 8.83246 1.04848 10.9317 0.866493C12.8961 0.866493 14.3292 1.05752 15.5685 1.54868C17.0523 2.13992 18.1567 3.17676 18.9154 4.7686C19.4044 6.06011 19.6911 7.45178 19.8429 9.05257C19.9608 10.2714 19.9861 11.2537 19.9946 13.4821V14.1916C20.0031 15.2922 20.0198 16.0653 20.0621 16.8384C20.0789 17.1386 20.0873 17.2659 20.1294 17.9845C20.2222 19.5307 20.256 20.3312 20.2643 21.2589C20.2813 23.8693 19.9777 25.8794 19.1768 27.5986H19.1769ZM21.7566 17.6389C21.7482 17.6389 21.7398 17.6297 21.7314 17.6297C21.5797 17.5752 21.529 17.5388 21.4784 17.4751L21.3435 17.5842C21.4194 17.6935 21.4953 17.7389 21.664 17.8025C21.6302 18.13 21.4869 18.2483 21.2425 18.221C21.0233 18.2027 20.7365 18.0572 20.5005 17.8844C20.433 17.8299 20.3656 17.7934 20.2982 17.7571C20.2897 17.7571 20.2813 17.748 20.2728 17.748C20.2391 17.2478 20.2391 17.1204 20.2223 16.8566L20.197 16.3654C20.6692 16.3746 21.1328 16.5291 21.4868 16.8111C21.6133 16.9112 21.7651 17.1022 21.8326 17.2658C21.9168 17.4205 21.9 17.5569 21.7566 17.6389Z" fill="black"/>
<path d="M12.2018 10.1742C12.2103 10.6381 12.2946 11.1474 12.2187 11.6386C12.1006 11.8751 11.8815 11.9025 11.6876 11.9933C11.4178 11.9478 11.1901 11.7568 11.0806 11.484C11.0131 10.9292 11.0974 10.4016 11.1227 9.84677C11.1227 9.82851 11.4431 9.85591 11.7297 9.94685C11.9741 10.0287 12.2018 10.1651 12.2018 10.1742ZM9.81594 10.2106C9.57981 11.1748 10.1279 12.7483 11.03 11.4567C10.9625 10.9109 11.0384 10.3834 11.0636 9.84677C11.0721 9.8013 9.8244 10.1469 9.81594 10.2106Z" fill="white"/>
<path d="M12.3029 10.6018C12.286 10.3288 12.2776 10.2197 12.2776 10.0833V10.0197L12.2187 10.0014L11.1564 9.64674V9.58301L11.0468 9.6104H11.0383V9.61944L9.84124 9.94688L9.79909 9.95602L9.78217 10.0014C9.59673 10.4835 9.63888 11.2112 9.87493 11.6569C10.1447 12.1662 10.5831 12.1753 11.0299 11.5931C11.0922 11.7228 11.1819 11.8348 11.2917 11.9202C11.4016 12.0055 11.5285 12.0618 11.6622 12.0844H11.6876L11.7128 12.0753C11.7466 12.057 11.7802 12.0479 11.8393 12.0207C11.8478 12.0207 11.8478 12.0207 11.8562 12.0115C12.1006 11.9206 12.2018 11.8478 12.2861 11.675L12.2946 11.6659V11.6477C12.3198 11.484 12.3283 11.3112 12.3283 11.1202C12.3283 10.9837 12.3198 10.8563 12.3029 10.6018ZM10.954 10.2652C10.9456 10.4289 10.9372 10.4926 10.9288 10.5835C10.9119 10.9201 10.9119 11.1748 10.9373 11.4294C10.5409 11.9752 10.229 11.9752 10.0183 11.5658C9.81594 11.1839 9.7737 10.538 9.92554 10.1106L10.9877 9.8195C10.9793 9.93775 10.971 10.056 10.954 10.2652ZM12.1344 11.6114C12.0754 11.7205 11.9994 11.7751 11.7971 11.8479C11.7886 11.8479 11.7886 11.8479 11.7802 11.8569C11.7297 11.8752 11.6959 11.8933 11.6706 11.9024C11.443 11.8569 11.2492 11.6932 11.1564 11.4659C11.1311 11.2202 11.1311 10.9656 11.1479 10.6291C11.1564 10.538 11.1564 10.4744 11.1733 10.3107C11.1901 10.1016 11.1985 9.97419 11.1985 9.85594L12.1175 10.1561C12.1175 10.2743 12.126 10.3834 12.1428 10.6199C12.1597 10.8656 12.168 10.9929 12.168 11.1384C12.168 11.3112 12.1596 11.4659 12.1344 11.6114Z" fill="black"/>
<path d="M4.74113 6.21149C5.51672 9.46765 10.3475 8.63087 10.162 5.36558C9.94273 1.45444 3.99921 2.2094 4.74104 6.21149" fill="white"/>
<path d="M10.2463 5.35651C10.1957 4.41052 9.8079 3.67382 9.16721 3.20996C8.59389 2.79157 7.83513 2.62785 7.08484 2.72784C6.33455 2.83714 5.64316 3.20092 5.18791 3.77399C4.68213 4.41061 4.48823 5.24739 4.66528 6.21155L4.74112 6.19329L4.66528 6.21155C5.45772 9.55866 10.4317 8.74919 10.2463 5.35651ZM4.81695 6.19338C4.64836 5.27479 4.83388 4.49252 5.30597 3.90128C5.73592 3.36464 6.38507 3.00999 7.10168 2.90991C7.81829 2.80983 8.5349 2.96451 9.07453 3.36464C9.67299 3.80129 10.0356 4.48348 10.0861 5.3839C10.2632 8.55825 5.56733 9.32235 4.81703 6.19338H4.81695Z" fill="black"/>
<path d="M6.07319 6.62991C6.52482 6.62991 6.89094 6.20233 6.89094 5.67488C6.89094 5.14743 6.52482 4.71985 6.07319 4.71985C5.62157 4.71985 5.25545 5.14743 5.25545 5.67488C5.25545 6.20233 5.62157 6.62991 6.07319 6.62991Z" fill="black"/>
<path d="M6.44406 6.13866C6.55115 6.13866 6.63796 6.02872 6.63796 5.89312C6.63796 5.75751 6.55115 5.64758 6.44406 5.64758C6.33698 5.64758 6.25017 5.75751 6.25017 5.89312C6.25017 6.02872 6.33698 6.13866 6.44406 6.13866Z" fill="white"/>
<path d="M11.5158 5.60274C12.1144 9.34103 17.7798 8.34957 16.962 4.58398C16.2286 1.20043 11.3134 2.13728 11.5158 5.60274Z" fill="white"/>
<path d="M17.0379 4.56579C16.2876 1.08217 11.2293 2.0372 11.4316 5.61176V5.62089C11.7097 7.38539 13.1683 8.28591 14.7785 7.99481C15.5119 7.85839 16.1695 7.47643 16.5995 6.91249C17.0716 6.28482 17.2402 5.47534 17.0379 4.56579ZM16.4731 6.80328C16.0684 7.33088 15.453 7.69466 14.7532 7.82204C13.2272 8.09488 11.8615 7.24897 11.5918 5.59359C11.4062 2.22822 16.178 1.32771 16.8861 4.60213C17.0716 5.46621 16.9199 6.22117 16.4731 6.80328Z" fill="black"/>
<path d="M12.9069 6.39406C13.3492 6.39406 13.7078 5.96648 13.7078 5.43904C13.7078 4.91159 13.3492 4.48401 12.9069 4.48401C12.4646 4.48401 12.106 4.91159 12.106 5.43904C12.106 5.96648 12.4646 6.39406 12.9069 6.39406Z" fill="black"/>
<path d="M13.2779 5.90282C13.3803 5.90282 13.4633 5.79289 13.4633 5.65728C13.4633 5.52167 13.3803 5.41174 13.2779 5.41174C13.1754 5.41174 13.0924 5.52167 13.0924 5.65728C13.0924 5.79289 13.1754 5.90282 13.2779 5.90282Z" fill="white"/>
<path d="M9.99004 8.24571C9.32396 8.30935 8.78441 9.15525 9.13014 9.82831C9.58531 10.7197 10.6054 9.74649 11.2377 9.83744C11.9712 9.8557 12.5698 10.6742 13.1515 9.98299C13.8007 9.2189 12.8733 8.47307 12.1398 8.14563L9.99004 8.24571Z" fill="#F6D2A2"/>
<path d="M13.2358 8.85512C13.0081 8.54585 12.612 8.26388 12.1819 8.07285L12.1651 8.06372H12.1482L9.99004 8.15476C9.23966 8.22753 8.70019 9.16439 9.0626 9.87379C9.20597 10.1467 9.39987 10.2831 9.66123 10.3013C9.85504 10.3104 10.0575 10.265 10.3694 10.1467C10.3947 10.1376 10.4284 10.1285 10.4705 10.1103C10.8921 9.9557 11.0607 9.91022 11.2293 9.93753H11.2377C11.44 9.93753 11.6087 10.0012 11.929 10.1376C12.2831 10.2922 12.3928 10.3377 12.5697 10.3558C12.8143 10.3741 13.0251 10.2831 13.2189 10.0558C13.5477 9.66459 13.5308 9.24621 13.2358 8.85512ZM13.0924 9.92839C12.9323 10.1194 12.7721 10.1832 12.5782 10.174C12.4264 10.1649 12.3253 10.1194 11.988 9.97387C11.6508 9.81928 11.4654 9.76476 11.2462 9.75563C11.0355 9.72824 10.8584 9.7738 10.4115 9.93753C10.3694 9.9557 10.3357 9.96483 10.3104 9.97387C9.69491 10.2012 9.39987 10.1831 9.19751 9.78284C8.89401 9.19169 9.35773 8.39126 9.99004 8.32761L12.1229 8.23657C12.5277 8.41856 12.8902 8.68227 13.1009 8.96433C13.3538 9.29168 13.3623 9.61912 13.0924 9.92839Z" fill="#231F20"/>
<path d="M12.3085 7.85461C12.0471 6.81768 9.85513 6.97236 9.90566 8.20935C10.0153 9.12795 12.5614 8.88232 12.3085 7.85461Z" fill="black"/>
</g>
<defs>
<clipPath id="clip0">
<rect width="21.6667" height="31.7778" fill="white" transform="translate(0.444427 0.666626)"/>
</clipPath>
</defs>
</svg>
