<svg width="30" height="30" viewBox="0 0 30 30" fill="none" xmlns="http://www.w3.org/2000/svg">
<g clip-path="url(#clip0)">
<path d="M29.3333 0.555542H0.444438V29.4444H29.3333V0.555542Z" fill="#F7DF1E"/>
<path d="M19.8504 23.1251C20.4323 24.0752 21.1894 24.7736 22.5284 24.7736C23.6532 24.7736 24.3718 24.2114 24.3718 23.4346C24.3718 22.5038 23.6335 22.1741 22.3954 21.6325L21.7167 21.3414C19.7578 20.5068 18.4564 19.4613 18.4564 17.2511C18.4564 15.2151 20.0077 13.6652 22.4321 13.6652C24.1581 13.6652 25.3989 14.2659 26.2931 15.8387L24.1792 17.196C23.7137 16.3615 23.2116 16.0327 22.4321 16.0327C21.637 16.0327 21.133 16.5371 21.133 17.196C21.133 18.0104 21.6374 18.3401 22.8021 18.8445L23.4808 19.1352C25.7873 20.1243 27.0896 21.1327 27.0896 23.3998C27.0896 25.8439 25.1697 27.1829 22.5912 27.1829C20.0701 27.1829 18.4413 25.9815 17.6443 24.4068L19.8504 23.1251ZM10.2607 23.3604C10.6872 24.117 11.0751 24.7567 12.0078 24.7567C12.8997 24.7567 13.4623 24.4077 13.4623 23.0508V13.8202H16.177V23.0875C16.177 25.8985 14.5289 27.1778 12.1233 27.1778C9.9498 27.1778 8.69107 26.053 8.05093 24.6982L10.2607 23.3604Z" fill="black"/>
</g>
<defs>
<clipPath id="clip0">
<rect width="28.8889" height="28.8889" fill="white" transform="translate(0.444438 0.555542)"/>
</clipPath>
</defs>
</svg>
