<svg width="23" height="30" viewBox="0 0 23 30" fill="none" xmlns="http://www.w3.org/2000/svg">
<g clip-path="url(#clip0)">
<path d="M7.43142 22.8878C7.43142 22.8878 6.31437 23.5287 8.22639 23.7455C10.5428 24.0062 11.7266 23.9688 14.2793 23.4922C14.2793 23.4922 14.9504 23.9073 15.8876 24.2669C10.1653 26.6863 2.93681 24.1268 7.43142 22.8878Z" fill="#5382A1"/>
<path d="M6.73217 19.7307C6.73217 19.7307 5.47928 20.6456 7.39273 20.8409C9.86714 21.0927 11.8212 21.1133 15.2026 20.471C15.2026 20.471 15.6703 20.9387 16.4057 21.1945C9.48699 23.1904 1.78082 21.3519 6.73217 19.7307Z" fill="#5382A1"/>
<path d="M12.627 14.375C14.037 15.9765 12.2566 17.4176 12.2566 17.4176C12.2566 17.4176 15.8368 15.5943 14.1925 13.3111C12.6569 11.1819 11.4792 10.124 17.8545 6.47644C17.8545 6.47644 7.84744 8.94204 12.627 14.375Z" fill="#E76F00"/>
<path d="M20.1953 25.2231C20.1953 25.2231 21.0219 25.8951 19.2849 26.4149C15.9819 27.402 5.53737 27.7001 2.63593 26.4542C1.59293 26.0066 3.54884 25.3854 4.1641 25.2551C4.80575 25.1178 5.17242 25.1434 5.17242 25.1434C4.01251 24.3373 -2.32479 26.7262 1.95339 27.4103C13.6206 29.2769 23.2216 26.5698 20.1953 25.2231Z" fill="#5382A1"/>
<path d="M7.96861 16.4594C7.96861 16.4594 2.65586 17.7043 6.08723 18.1563C7.53606 18.3477 10.4243 18.3044 13.1146 18.082C15.3132 17.899 17.5209 17.51 17.5209 17.51C17.5209 17.51 16.7457 17.8376 16.1848 18.2154C10.7898 19.6151 0.36763 18.9639 3.36803 17.5322C5.90547 16.3221 7.96861 16.4594 7.96861 16.4594Z" fill="#5382A1"/>
<path d="M17.499 21.7147C22.9833 18.9033 20.4476 16.2016 18.6777 16.5656C18.2439 16.6546 18.0505 16.7318 18.0505 16.7318C18.0505 16.7318 18.2115 16.4829 18.5191 16.3752C22.0205 15.1608 24.7133 19.9569 17.3888 21.8564C17.3888 21.8565 17.4737 21.7816 17.499 21.7147Z" fill="#5382A1"/>
<path d="M14.1925 0.586548C14.1925 0.586548 17.2298 3.58387 11.3118 8.19289C6.56619 11.8901 10.2297 13.9982 11.3099 16.4067C8.53975 13.9411 6.50686 11.7707 7.87068 9.75059C9.87244 6.78529 15.418 5.34761 14.1925 0.586548Z" fill="#E76F00"/>
<path d="M8.50751 29.333C13.7717 29.6654 21.8555 29.1486 22.047 26.6913C22.047 26.6913 21.6789 27.6228 17.6964 28.3626C13.2033 29.1968 7.66164 29.0994 4.37485 28.5648C4.37493 28.5647 5.0477 29.1141 8.50751 29.333Z" fill="#5382A1"/>
</g>
<defs>
<clipPath id="clip0">
<rect width="21.6667" height="28.8889" fill="white" transform="translate(0.444443 0.555542)"/>
</clipPath>
</defs>
</svg>
