<svg width="60" height="66" viewBox="0 0 60 66" fill="none" xmlns="http://www.w3.org/2000/svg">
<path d="M59.2015 36.4231C59.6507 36.0173 59.9002 35.4593 59.9501 34.7998C60 33.4808 59.0518 32.4155 57.7542 32.3141C57.1553 32.2634 56.5564 32.517 56.1072 32.8721L14.2848 56.1566C13.3366 56.5624 12.4882 57.2726 11.9392 58.2365C10.4919 60.6715 11.2904 63.8166 13.7358 65.2878C15.4327 66.3023 17.4789 66.2009 19.0759 65.1863C19.1757 65.0849 19.3255 65.0341 19.4253 64.9327L58.3531 37.1333C58.5527 36.9811 59.1017 36.5753 59.2015 36.4231Z" fill="url(#paint0_linear)"/>
<path d="M59.3013 33.0244L27.4604 1.26822C26.7617 0.507287 25.7635 0 24.6157 0C22.4696 0 20.7728 1.77551 20.7728 3.90611C20.7728 4.97142 21.1721 5.88453 21.8209 6.59474C22.0205 6.79765 22.2201 6.94984 22.4197 7.10202L56.0573 36.3725C56.4566 36.7276 56.9557 36.9813 57.5546 37.032C58.8521 37.0827 59.9002 36.1189 60 34.7999C60 34.1404 59.7505 33.481 59.3013 33.0244Z" fill="url(#paint1_linear)"/>
<path d="M28.5086 30.1836C28.4587 30.1836 8.84508 14.4576 8.44582 14.204L7.54748 13.7474C4.65285 12.6314 1.45878 14.1533 0.360817 17.0955C-0.587424 19.6827 0.460632 22.5235 2.65656 23.8932C3.00591 24.0961 3.30535 24.2483 3.65471 24.3498C3.85434 24.4512 26.3127 33.8868 26.3127 33.8868C27.211 34.2926 28.2591 34.0389 28.8579 33.278C29.6066 32.3142 29.4568 30.9445 28.5086 30.1836Z" fill="url(#paint2_linear)"/>
<path d="M24.6157 0C23.7672 0 22.9687 0.304372 22.3199 0.760931L2.45676 14.3562C2.40686 14.407 2.35695 14.407 2.35695 14.4577H2.30704C1.45862 15.0664 0.759911 15.9796 0.360652 17.0449C-0.737311 19.9871 0.759911 23.2845 3.65454 24.3498C5.45121 25.06 7.3976 24.7049 8.84491 23.6396C9.19426 23.386 9.49371 23.1323 9.74325 22.8279L27.0112 7.00057C27.9095 6.29036 28.5084 5.17433 28.5084 3.90611C28.5084 1.77551 26.7617 0 24.6157 0V0Z" fill="url(#paint3_linear)"/>
<path d="M17.2793 18.9727H42.732V44.8443H17.2793V18.9727Z" fill="black"/>
<path d="M19.4752 39.9742H29.0075V41.5976H19.4752V39.9742ZM19.3754 25.7702L20.124 25.06C20.3236 25.3136 20.5233 25.4658 20.7728 25.4658C21.0722 25.4658 21.222 25.2629 21.222 24.8571V22.1685H22.3698V24.8571C22.3698 25.3644 22.2201 25.7702 21.9706 26.0238C21.721 26.2775 21.3218 26.4297 20.8227 26.4297C20.0741 26.4804 19.6748 26.176 19.3754 25.7702ZM22.6194 22.2192H25.9632V23.183H23.7672V23.8425H25.7635V24.7556H23.7672V25.4151H26.0131V26.4297H22.6693L22.6194 22.2192ZM27.4604 23.2338H26.2127V22.2192H29.8559V23.2338H28.6083V26.4297H27.4604V23.2338ZM19.4752 27.3935H21.6212C22.1203 27.3935 22.5195 27.5457 22.7691 27.7486C22.9188 27.9008 23.0186 28.1544 23.0186 28.4588C23.0186 28.9661 22.7691 29.2198 22.3698 29.4227C22.8689 29.5749 23.1683 29.8792 23.1683 30.4372C23.1683 31.1474 22.5695 31.604 21.6212 31.604H19.4752V27.3935ZM21.8708 28.7125C21.8708 28.4588 21.6711 28.3574 21.3717 28.3574H20.6231V29.1183H21.3218C21.6711 29.0676 21.8708 28.9661 21.8708 28.7125ZM21.4715 29.93H20.5732V30.6909H21.4715C21.8208 30.6909 22.0205 30.5387 22.0205 30.2851C22.0205 30.0314 21.8208 29.93 21.4715 29.93ZM23.368 27.3935H25.3144C25.9632 27.3935 26.3624 27.5457 26.6619 27.8501C26.9114 28.1037 27.0112 28.4081 27.0112 28.8139C27.0112 29.4734 26.6619 29.8792 26.1628 30.1329L27.1609 31.604H25.8633L25.0149 30.3358H24.5158V31.604H23.368V27.3935ZM25.2645 29.4227C25.6637 29.4227 25.8633 29.2198 25.8633 28.9154C25.8633 28.5603 25.6138 28.4081 25.2645 28.4081H24.5158V29.4227H25.2645Z" fill="white"/>
<path d="M28.3587 27.3935H29.4567L31.2034 31.6547H29.9557L29.6563 30.8938H28.0593L27.7598 31.6547H26.562L28.3587 27.3935ZM29.3569 29.9299L28.9077 28.7632L28.4585 29.9299H29.3569ZM31.3532 27.3935H32.501V31.604H31.3532V27.3935ZM32.8005 27.3935H33.8485L35.5454 29.6256V27.3935H36.6932V31.604H35.6951L33.9483 29.3212V31.6547H32.8005V27.3935ZM36.7931 30.9952L37.4419 30.2343C37.8411 30.5894 38.2903 30.7416 38.7894 30.7416C39.0888 30.7416 39.2884 30.6401 39.2884 30.4372C39.2884 30.2343 39.1387 30.1836 38.5897 30.0314C37.6914 29.8285 37.0426 29.5748 37.0426 28.7124C37.0426 27.9515 37.6415 27.3428 38.6396 27.3428C39.3383 27.3428 39.8873 27.5457 40.3365 27.9008L39.7376 28.7124C39.3383 28.4588 38.9391 28.3066 38.5897 28.3066C38.2903 28.3066 38.1905 28.4081 38.1905 28.5603C38.1905 28.7632 38.3402 28.8139 38.8892 28.9661C39.8374 29.169 40.4363 29.4734 40.4363 30.285C40.4363 31.1474 39.7875 31.6547 38.7394 31.6547C37.9908 31.7054 37.2921 31.4518 36.7931 30.9952Z" fill="white"/>
<defs>
<linearGradient id="paint0_linear" x1="15.9025" y1="54.7069" x2="49.705" y2="34.6355" gradientUnits="userSpaceOnUse">
<stop stop-color="#FCEE39"/>
<stop offset="1" stop-color="#F37B3D"/>
</linearGradient>
<linearGradient id="paint1_linear" x1="24.1467" y1="5.56619" x2="58.2059" y2="34.9012" gradientUnits="userSpaceOnUse">
<stop stop-color="#EF5A6B"/>
<stop offset="0.57" stop-color="#F26F4E"/>
<stop offset="1" stop-color="#F37B3D"/>
</linearGradient>
<linearGradient id="paint2_linear" x1="26.4356" y1="27.8551" x2="8.18072" y2="16.6394" gradientUnits="userSpaceOnUse">
<stop stop-color="#7C59A4"/>
<stop offset="0.3852" stop-color="#AF4C92"/>
<stop offset="0.7654" stop-color="#DC4183"/>
<stop offset="0.957" stop-color="#ED3D7D"/>
</linearGradient>
<linearGradient id="paint3_linear" x1="26.0499" y1="4.73226" x2="7.42584" y2="19.865" gradientUnits="userSpaceOnUse">
<stop stop-color="#EF5A6B"/>
<stop offset="0.364" stop-color="#EE4E72"/>
<stop offset="1" stop-color="#ED3D7D"/>
</linearGradient>
</defs>
</svg>
