<svg width="30" height="30" viewBox="0 0 30 30" fill="none" xmlns="http://www.w3.org/2000/svg">
<g clip-path="url(#clip0)">
<path fill-rule="evenodd" clip-rule="evenodd" d="M22.8259 19.6232L6.33217 29.4444L27.6885 27.9912L29.3333 6.39673L22.8259 19.6232Z" fill="url(#paint0_linear)"/>
<path fill-rule="evenodd" clip-rule="evenodd" d="M27.7235 27.9765L25.8879 15.272L20.888 21.8925L27.7235 27.9765Z" fill="url(#paint1_linear)"/>
<path fill-rule="evenodd" clip-rule="evenodd" d="M27.7483 27.9764L14.3006 26.9178L6.40363 29.4168L27.7483 27.9764Z" fill="url(#paint2_linear)"/>
<path fill-rule="evenodd" clip-rule="evenodd" d="M6.42259 29.4196L9.782 18.3834L2.38954 19.9685L6.42259 29.4196Z" fill="url(#paint3_linear)"/>
<path fill-rule="evenodd" clip-rule="evenodd" d="M20.8867 21.9291L17.7956 9.78748L8.94942 18.1026L20.8867 21.9291Z" fill="url(#paint4_linear)"/>
<path fill-rule="evenodd" clip-rule="evenodd" d="M28.632 9.95851L20.2699 3.10986L17.9414 10.6589L28.632 9.95851Z" fill="url(#paint5_linear)"/>
<path fill-rule="evenodd" clip-rule="evenodd" d="M24.7215 0.668145L19.8034 3.39357L16.7006 0.631592L24.7215 0.668145Z" fill="url(#paint6_linear)"/>
<path fill-rule="evenodd" clip-rule="evenodd" d="M0.444458 23.6705L2.50472 19.9026L0.838139 15.4138L0.444458 23.6705Z" fill="url(#paint7_linear)"/>
<path fill-rule="evenodd" clip-rule="evenodd" d="M0.727325 15.2719L2.40411 20.0414L9.69013 18.4022L18.0085 10.65L20.356 3.17277L16.6596 0.555542L10.3753 2.91397C8.39535 4.76065 4.55332 8.41453 4.4148 8.48325C4.27774 8.55343 1.87775 13.1021 0.727325 15.2719Z" fill="white"/>
<path fill-rule="evenodd" clip-rule="evenodd" d="M6.61505 6.70378C10.9062 2.43727 16.4381 -0.0834579 18.5611 2.06442C20.6827 4.2123 18.4328 9.43213 14.1416 13.6972C9.85052 17.9622 4.3871 20.6219 2.2656 18.474C0.142639 16.3276 2.32392 10.9688 6.61505 6.70378Z" fill="url(#paint8_linear)"/>
<path fill-rule="evenodd" clip-rule="evenodd" d="M6.42258 29.4152L9.75574 18.3439L20.8255 21.91C16.823 25.6736 12.3715 28.8552 6.42258 29.4152Z" fill="url(#paint9_linear)"/>
<path fill-rule="evenodd" clip-rule="evenodd" d="M18.023 10.6282L20.8648 21.9159C24.2082 18.3907 27.2089 14.6008 28.6785 9.91321L18.023 10.6282Z" fill="url(#paint10_linear)"/>
<path fill-rule="evenodd" clip-rule="evenodd" d="M28.6495 9.97022C29.7868 6.52835 30.0492 1.59071 24.6863 0.67395L20.2858 3.11133L28.6495 9.97022Z" fill="url(#paint11_linear)"/>
<path fill-rule="evenodd" clip-rule="evenodd" d="M0.444458 23.6208C0.60193 29.3013 4.68892 29.386 6.42987 29.4358L2.40849 20.0181L0.444458 23.6208Z" fill="#9E1209"/>
<path fill-rule="evenodd" clip-rule="evenodd" d="M18.0389 10.6458C20.6081 12.2293 25.7859 15.4094 25.8908 15.4679C26.054 15.56 28.1232 11.969 28.5927 9.93958L18.0389 10.6458Z" fill="url(#paint12_radial)"/>
<path fill-rule="evenodd" clip-rule="evenodd" d="M9.75137 18.3439L14.2073 26.9646C16.842 25.5317 18.9052 23.7859 20.7949 21.9159L9.75137 18.3439Z" fill="url(#paint13_radial)"/>
<path fill-rule="evenodd" clip-rule="evenodd" d="M2.39099 20.0297L1.75964 27.5685C2.95089 29.2002 4.58977 29.3421 6.30885 29.2149C5.06511 26.1107 2.58054 19.904 2.39099 20.0297Z" fill="url(#paint14_linear)"/>
<path fill-rule="evenodd" clip-rule="evenodd" d="M20.2597 3.13033L29.1117 4.37607C28.6393 2.36856 27.1885 1.0731 24.7156 0.668091L20.2597 3.13033Z" fill="url(#paint15_linear)"/>
</g>
<defs>
<linearGradient id="paint0_linear" x1="25.8257" y1="32.0717" x2="19.7057" y2="21.2963" gradientUnits="userSpaceOnUse">
<stop stop-color="#FB7655"/>
<stop offset="0.41" stop-color="#E42B1E"/>
<stop offset="0.99" stop-color="#990000"/>
<stop offset="1" stop-color="#990000"/>
</linearGradient>
<linearGradient id="paint1_linear" x1="28.8617" y1="23.0078" x2="20.9938" y2="17.7426" gradientUnits="userSpaceOnUse">
<stop stop-color="#871101"/>
<stop offset="0.99" stop-color="#911209"/>
<stop offset="1" stop-color="#911209"/>
</linearGradient>
<linearGradient id="paint2_linear" x1="22.5774" y1="32.3987" x2="14.7098" y2="27.1337" gradientUnits="userSpaceOnUse">
<stop stop-color="#871101"/>
<stop offset="0.99" stop-color="#911209"/>
<stop offset="1" stop-color="#911209"/>
</linearGradient>
<linearGradient id="paint3_linear" x1="6.08669" y1="19.1818" x2="7.3109" y2="27.1159" gradientUnits="userSpaceOnUse">
<stop stop-color="white"/>
<stop offset="0.23" stop-color="#E57252"/>
<stop offset="0.46" stop-color="#DE3B20"/>
<stop offset="0.99" stop-color="#A60003"/>
<stop offset="1" stop-color="#A60003"/>
</linearGradient>
<linearGradient id="paint4_linear" x1="14.4614" y1="11.7724" x2="14.9125" y2="19.8705" gradientUnits="userSpaceOnUse">
<stop stop-color="white"/>
<stop offset="0.23" stop-color="#E4714E"/>
<stop offset="0.56" stop-color="#BE1A0D"/>
<stop offset="0.99" stop-color="#A80D00"/>
<stop offset="1" stop-color="#A80D00"/>
</linearGradient>
<linearGradient id="paint5_linear" x1="21.8932" y1="4.28703" x2="23.2434" y2="10.0894" gradientUnits="userSpaceOnUse">
<stop stop-color="white"/>
<stop offset="0.18" stop-color="#E46342"/>
<stop offset="0.4" stop-color="#C82410"/>
<stop offset="0.99" stop-color="#A80D00"/>
<stop offset="1" stop-color="#A80D00"/>
</linearGradient>
<linearGradient id="paint6_linear" x1="17.7921" y1="2.24309" x2="23.586" y2="-0.645826" gradientUnits="userSpaceOnUse">
<stop stop-color="white"/>
<stop offset="0.54" stop-color="#C81F11"/>
<stop offset="0.99" stop-color="#BF0905"/>
<stop offset="1" stop-color="#BF0905"/>
</linearGradient>
<linearGradient id="paint7_linear" x1="1.01359" y1="17.1588" x2="1.49256" y2="21.9409" gradientUnits="userSpaceOnUse">
<stop stop-color="white"/>
<stop offset="0.31" stop-color="#DE4024"/>
<stop offset="0.99" stop-color="#BF190B"/>
<stop offset="1" stop-color="#BF190B"/>
</linearGradient>
<linearGradient id="paint8_linear" x1="-2.2611" y1="23.2339" x2="20.1947" y2="0.207141" gradientUnits="userSpaceOnUse">
<stop stop-color="#BD0012"/>
<stop offset="0.07" stop-color="white"/>
<stop offset="0.17" stop-color="white"/>
<stop offset="0.27" stop-color="#C82F1C"/>
<stop offset="0.33" stop-color="#820C01"/>
<stop offset="0.46" stop-color="#A31601"/>
<stop offset="0.72" stop-color="#B31301"/>
<stop offset="0.99" stop-color="#E82609"/>
<stop offset="1" stop-color="#E82609"/>
</linearGradient>
<linearGradient id="paint9_linear" x1="14.8903" y1="25.5629" x2="8.14354" y2="23.9024" gradientUnits="userSpaceOnUse">
<stop stop-color="#8C0C01"/>
<stop offset="0.54" stop-color="#990C00"/>
<stop offset="0.99" stop-color="#A80D0E"/>
<stop offset="1" stop-color="#A80D0E"/>
</linearGradient>
<linearGradient id="paint10_linear" x1="26.4749" y1="17.4453" x2="20.4684" y2="12.0768" gradientUnits="userSpaceOnUse">
<stop stop-color="#7E110B"/>
<stop offset="0.99" stop-color="#9E0C00"/>
<stop offset="1" stop-color="#9E0C00"/>
</linearGradient>
<linearGradient id="paint11_linear" x1="28.6763" y1="7.56456" x2="25.6828" y2="4.37325" gradientUnits="userSpaceOnUse">
<stop stop-color="#79130D"/>
<stop offset="0.99" stop-color="#9E120B"/>
<stop offset="1" stop-color="#9E120B"/>
</linearGradient>
<radialGradient id="paint12_radial" cx="0" cy="0" r="1" gradientUnits="userSpaceOnUse" gradientTransform="translate(21.4162 12.1632) scale(7.34253 7.36297)">
<stop stop-color="#A80D00"/>
<stop offset="0.99" stop-color="#7E0E08"/>
<stop offset="1" stop-color="#7E0E08"/>
</radialGradient>
<radialGradient id="paint13_radial" cx="0" cy="0" r="1" gradientUnits="userSpaceOnUse" gradientTransform="translate(11.2477 21.8663) scale(9.76091 9.78808)">
<stop stop-color="#A30C00"/>
<stop offset="0.99" stop-color="#800E08"/>
<stop offset="1" stop-color="#800E08"/>
</radialGradient>
<linearGradient id="paint14_linear" x1="4.33314" y1="29.4087" x2="1.88841" y2="21.1376" gradientUnits="userSpaceOnUse">
<stop stop-color="#8B2114"/>
<stop offset="0.43" stop-color="#9E100A"/>
<stop offset="0.99" stop-color="#B3100C"/>
<stop offset="1" stop-color="#B3100C"/>
</linearGradient>
<linearGradient id="paint15_linear" x1="22.9923" y1="1.98809" x2="28.4502" y2="4.39058" gradientUnits="userSpaceOnUse">
<stop stop-color="#B31000"/>
<stop offset="0.44" stop-color="#910F08"/>
<stop offset="0.99" stop-color="#791C12"/>
<stop offset="1" stop-color="#791C12"/>
</linearGradient>
<clipPath id="clip0">
<rect width="28.8889" height="28.8889" fill="white" transform="translate(0.444458 0.555542)"/>
</clipPath>
</defs>
</svg>
