<svg width="38" height="20" viewBox="0 0 38 20" fill="none" xmlns="http://www.w3.org/2000/svg">
<path d="M31.7988 13.5786L31.4243 12.8028C31.4263 12.7734 31.4278 12.7439 31.4278 12.7143C31.4278 11.8349 30.5132 11.0243 28.9746 10.3753V10.915C28.8246 10.8554 28.6684 10.7975 28.5056 10.7414V10.4899C26.3068 9.69689 23.0334 9.19373 19.3768 9.19373C16.1821 9.19373 13.2795 9.57781 11.1307 10.2037V11.08H11.1306V10.0194C8.92906 10.719 7.56415 11.6909 7.56415 12.7655C7.56415 12.9349 7.59831 13.1018 7.66396 13.2654L7.43971 13.6646C7.43971 13.6646 7.26001 13.8977 7.57641 14.3894C7.85545 14.8231 9.25324 16.5204 9.99099 17.4093C10.3079 17.8649 10.5228 18.1456 10.5416 18.1185C10.5712 18.0755 10.3445 17.2199 9.71521 16.2438C9.42152 15.7197 9.07088 15.0251 8.86034 14.5121C9.44802 14.884 12.9007 16.6227 19.9435 16.6156C27.1411 16.6084 30.3404 14.3554 30.6915 14.0487C30.5688 14.5416 30.1496 15.5389 29.8152 16.2402C29.2659 17.2433 29.0669 18.1165 29.0925 18.1597C29.1087 18.187 29.2962 17.8978 29.5726 17.4293C30.2158 16.5127 31.4346 14.7631 31.6782 14.3173C31.9542 13.8121 31.7988 13.5786 31.7988 13.5786Z" fill="#A52B00"/>
<path d="M33.9735 13.5743L31.5119 11.761C31.4888 11.6803 31.4657 11.5996 31.4418 11.5196L32.2503 10.3483C32.3329 10.2291 32.3495 10.0743 32.2959 9.93841C32.2422 9.8032 32.1248 9.70628 31.986 9.68254L30.6188 9.45051C30.5658 9.34239 30.5103 9.23594 30.4546 9.13036L31.029 7.81527C31.088 7.68134 31.0757 7.52565 30.9973 7.40407C30.9192 7.28192 30.7868 7.21057 30.6455 7.21612L29.258 7.26653C29.1862 7.17296 29.1132 7.08029 29.0387 6.98926L29.3576 5.57974C29.3899 5.43665 29.3491 5.28677 29.2494 5.1828C29.1503 5.07921 29.0062 5.0363 28.8693 5.0699L27.5178 5.40215C27.4303 5.32481 27.3413 5.24848 27.2513 5.17365L27.2999 3.72662C27.3051 3.58015 27.2369 3.44094 27.1196 3.35962C27.0024 3.27784 26.8537 3.26555 26.7256 3.3263L25.4648 3.92573C25.3632 3.86747 25.2611 3.80979 25.1579 3.75395L24.9351 2.32801C24.9125 2.18356 24.8195 2.06082 24.6894 2.00479C24.5596 1.94842 24.4109 1.96669 24.297 2.05245L23.1729 2.89586C23.0622 2.8591 22.951 2.82388 22.8385 2.79016L22.354 1.43793C22.3047 1.30009 22.1911 1.19886 22.0525 1.17037C21.9145 1.14217 21.7724 1.18998 21.6767 1.29696L20.7305 2.3555C20.6161 2.34237 20.5016 2.33037 20.3868 2.32041L19.6562 1.08946C19.5822 0.964803 19.4515 0.888916 19.3106 0.888916C19.1701 0.888916 19.0392 0.964803 18.9657 1.08946L18.2349 2.32041C18.1201 2.33037 18.0051 2.34237 17.8909 2.3555L16.9447 1.29696C16.8488 1.18998 16.7063 1.14217 16.5686 1.17037C16.4302 1.19923 16.3164 1.30009 16.2674 1.43793L15.7825 2.79016C15.6702 2.82388 15.559 2.85934 15.4481 2.89586L14.3244 2.05245C14.2101 1.96638 14.0613 1.94817 13.9313 2.00479C13.8016 2.06082 13.7083 2.18356 13.6858 2.32801L13.4629 3.75395C13.3598 3.80979 13.2577 3.86716 13.1559 3.92573L11.8952 3.3263C11.7672 3.26531 11.6177 3.27784 11.5011 3.35962C11.384 3.44094 11.3156 3.58015 11.3208 3.72662L11.3693 5.17365C11.2795 5.24848 11.1907 5.32481 11.1028 5.40215L9.75149 5.0699C9.61427 5.03658 9.47034 5.07921 9.37097 5.1828C9.27104 5.28677 9.23055 5.43665 9.26266 5.57974L9.58089 6.98926C9.50711 7.08063 9.43404 7.17296 9.36241 7.26653L7.97485 7.21612C7.83483 7.21193 7.70118 7.28192 7.62293 7.40407C7.54453 7.52565 7.53265 7.68134 7.59101 7.81527L8.16584 9.13036C8.11002 9.23594 8.05458 9.34239 8.00113 9.45051L6.63407 9.68254C6.49511 9.70594 6.37805 9.8028 6.32401 9.93841C6.2704 10.0743 6.2878 10.2291 6.36974 10.3483L7.17844 11.5196C7.1722 11.5403 7.16643 11.5611 7.16022 11.5819L4.87381 14.0107C4.87381 14.0107 4.52335 14.2853 5.03349 14.9307C5.48336 15.5 7.7932 17.7569 9.0131 18.9393C9.5283 19.5396 9.8813 19.9113 9.91816 19.8791C9.97636 19.8281 9.67083 18.7359 8.656 17.4545C7.87367 16.3049 6.85838 14.5367 7.09647 14.3329C7.09647 14.3329 7.36729 13.9891 7.91063 13.7416C7.93051 13.7575 7.89009 13.7259 7.91063 13.7416C7.91063 13.7416 19.3773 19.0311 30.0137 13.8311C31.2288 13.6132 31.9643 14.2641 31.9643 14.2641C32.218 14.4111 31.5611 16.2293 31.021 17.4329C30.2863 18.7995 30.1786 19.8659 30.2409 19.9029C30.2802 19.9264 30.5475 19.5196 30.9288 18.8723C31.8696 17.5614 33.648 15.0624 33.9735 14.4554C34.3425 13.7672 33.9735 13.5743 33.9735 13.5743Z" fill="#F74C00"/>
<path d="M28.9595 12.8959C28.9595 12.8959 30.6094 12.8194 32.7766 10.6168L33.0837 9.93487C33.0837 9.93487 29.72 6.58889 34.9488 4.2793C34.9488 4.2793 34.491 5.02737 34.6254 7.91766C34.6254 7.91766 36.2019 7.3701 36.6641 4.81702C36.6641 4.81702 38.9637 7.84891 34.1666 10.6924C34.1666 10.6924 31.916 14.3003 28.7432 13.9547L28.9595 12.8959Z" fill="#F74C00"/>
<path d="M21.4856 10.8177C21.4856 10.8177 22.6315 9.56293 23.7775 10.8177C23.7775 10.8177 24.6779 12.4908 23.7775 13.3272C23.7775 13.3272 22.3042 14.4983 21.4856 13.3272C21.4856 13.3272 20.5034 12.407 21.4856 10.8177Z" fill="black"/>
<path d="M22.8126 11.2835C22.8126 11.772 22.5246 12.1681 22.1694 12.1681C21.8142 12.1681 21.5263 11.772 21.5263 11.2835C21.5263 10.7948 21.8142 10.3987 22.1694 10.3987C22.5246 10.3987 22.8126 10.7948 22.8126 11.2835Z" fill="white"/>
<path d="M16.3712 10.4749C16.3712 10.4749 18.3368 9.60458 18.8733 11.5472C18.8733 11.5472 19.4353 13.8114 17.2591 13.9392C17.2591 13.9392 14.4841 13.4047 16.3712 10.4749Z" fill="black"/>
<path d="M17.3584 11.3151C17.3584 11.8189 17.0614 12.2275 16.695 12.2275C16.3288 12.2275 16.0317 11.8189 16.0317 11.3151C16.0317 10.8111 16.3288 10.4026 16.695 10.4026C17.0614 10.4026 17.3584 10.8111 17.3584 11.3151Z" fill="white"/>
<path d="M18.8903 14.731L21.397 14.5298C21.397 14.5298 21.3121 14.9333 20.985 15.2362C20.985 15.2362 20.1228 16.1815 19.1337 15.1576C19.1337 15.1576 18.9718 14.983 18.8903 14.731Z" fill="black"/>
<path d="M8.85264 12.4109C8.83194 12.4109 8.81165 12.4124 8.79142 12.414C7.97752 12.2288 5.68976 11.6327 5.08506 10.6654C5.08506 10.6654 8.16357 7.16353 3.352 4.92517L3.91222 8.79951C3.91222 8.79951 2.42895 7.80829 2.10886 5.65525C2.10886 5.65525 -1.50316 8.27668 3.70305 10.7891C3.70305 10.7891 4.17525 12.5633 8.7089 13.9789L8.71222 13.9654C8.75786 13.9739 8.80458 13.9789 8.85264 13.9789C9.28103 13.9789 9.62835 13.628 9.62835 13.1949C9.62835 12.7619 9.28103 12.4109 8.85264 12.4109Z" fill="#F74C00"/>
</svg>
